<mxfile host="app.diagrams.net" agent="Mozilla/5.0 (Windows NT 10.0; Win64; x64; rv:130.0) Gecko/20100101 Firefox/130.0" version="24.7.12">
  <diagram name="Page-1" id="W4YvApNCXR5A6FudypIm">
    <mxGraphModel dx="2492" dy="2064" grid="1" gridSize="10" guides="1" tooltips="1" connect="1" arrows="1" fold="1" page="1" pageScale="1" pageWidth="850" pageHeight="1100" math="0" shadow="0">
      <root>
        <mxCell id="0" />
        <mxCell id="1" parent="0" />
        <mxCell id="aNrNENJhGVUGavfEX417-25" value="VPC" style="sketch=0;outlineConnect=0;gradientColor=none;html=1;whiteSpace=wrap;fontSize=12;fontStyle=0;shape=mxgraph.aws4.group;grIcon=mxgraph.aws4.group_vpc;strokeColor=#879196;fillColor=none;verticalAlign=top;align=left;spacingLeft=30;fontColor=#879196;dashed=0;" parent="1" vertex="1">
          <mxGeometry y="90" width="660" height="640" as="geometry" />
        </mxCell>
        <mxCell id="aNrNENJhGVUGavfEX417-16" value="" style="rounded=1;whiteSpace=wrap;html=1;" parent="1" vertex="1">
          <mxGeometry x="20" y="250" width="591.75" height="330" as="geometry" />
        </mxCell>
        <mxCell id="aNrNENJhGVUGavfEX417-1" value="" style="outlineConnect=0;dashed=0;verticalLabelPosition=bottom;verticalAlign=top;align=center;html=1;shape=mxgraph.aws3.traditional_server;fillColor=#7D7C7C;gradientColor=none;" parent="1" vertex="1">
          <mxGeometry x="476.51" y="627" width="46.5" height="63" as="geometry" />
        </mxCell>
        <mxCell id="aNrNENJhGVUGavfEX417-2" value="" style="outlineConnect=0;dashed=0;verticalLabelPosition=bottom;verticalAlign=top;align=center;html=1;shape=mxgraph.aws3.traditional_server;fillColor=#005900;strokeColor=#005700;fontColor=#ffffff;" parent="1" vertex="1">
          <mxGeometry x="270.01" y="486.5" width="46.5" height="63" as="geometry" />
        </mxCell>
        <mxCell id="aNrNENJhGVUGavfEX417-3" value="" style="outlineConnect=0;dashed=0;verticalLabelPosition=bottom;verticalAlign=top;align=center;html=1;shape=mxgraph.aws3.traditional_server;fillColor=#CC0000;strokeColor=#6F0000;fontColor=#ffffff;" parent="1" vertex="1">
          <mxGeometry x="499.88" y="270" width="46.5" height="63" as="geometry" />
        </mxCell>
        <mxCell id="aNrNENJhGVUGavfEX417-35" style="rounded=0;orthogonalLoop=1;jettySize=auto;html=1;" parent="1" source="aNrNENJhGVUGavfEX417-4" target="aNrNENJhGVUGavfEX417-2" edge="1">
          <mxGeometry relative="1" as="geometry" />
        </mxCell>
        <mxCell id="aNrNENJhGVUGavfEX417-37" value="Managed" style="edgeLabel;html=1;align=center;verticalAlign=middle;resizable=0;points=[];" parent="aNrNENJhGVUGavfEX417-35" vertex="1" connectable="0">
          <mxGeometry x="0.0187" y="1" relative="1" as="geometry">
            <mxPoint as="offset" />
          </mxGeometry>
        </mxCell>
        <mxCell id="aNrNENJhGVUGavfEX417-4" value="" style="outlineConnect=0;dashed=0;verticalLabelPosition=bottom;verticalAlign=top;align=center;html=1;shape=mxgraph.aws3.traditional_server;fillColor=#7D7C7C;gradientColor=none;" parent="1" vertex="1">
          <mxGeometry x="90.25" y="620" width="46.5" height="63" as="geometry" />
        </mxCell>
        <mxCell id="aNrNENJhGVUGavfEX417-5" value="" style="outlineConnect=0;dashed=0;verticalLabelPosition=bottom;verticalAlign=top;align=center;html=1;shape=mxgraph.aws3.traditional_server;fillColor=#cce5ff;strokeColor=#36393d;" parent="1" vertex="1">
          <mxGeometry x="270.01" y="270" width="46.5" height="63" as="geometry" />
        </mxCell>
        <mxCell id="LWK1aguUJlo9VhWStzpI-16" style="rounded=0;orthogonalLoop=1;jettySize=auto;html=1;" edge="1" parent="1" source="aNrNENJhGVUGavfEX417-6" target="LWK1aguUJlo9VhWStzpI-1">
          <mxGeometry relative="1" as="geometry" />
        </mxCell>
        <mxCell id="aNrNENJhGVUGavfEX417-6" value="" style="outlineConnect=0;dashed=0;verticalLabelPosition=bottom;verticalAlign=top;align=center;html=1;shape=mxgraph.aws3.traditional_server;fillColor=#FF9999;strokeColor=#A50040;fillStyle=auto;fontColor=#ffffff;" parent="1" vertex="1">
          <mxGeometry x="776.5" y="70" width="46.5" height="63" as="geometry" />
        </mxCell>
        <mxCell id="aNrNENJhGVUGavfEX417-17" value="VULTR" style="text;html=1;align=center;verticalAlign=middle;whiteSpace=wrap;rounded=0;" parent="1" vertex="1">
          <mxGeometry x="70" y="210" width="60" height="30" as="geometry" />
        </mxCell>
        <mxCell id="aNrNENJhGVUGavfEX417-18" value="Elastic &amp;amp; Kibana" style="text;html=1;align=center;verticalAlign=middle;whiteSpace=wrap;rounded=0;" parent="1" vertex="1">
          <mxGeometry x="244.88" y="360" width="96.75" height="30" as="geometry" />
        </mxCell>
        <mxCell id="aNrNENJhGVUGavfEX417-19" value="Ubuntu Server SSH Enabled" style="text;html=1;align=center;verticalAlign=middle;whiteSpace=wrap;rounded=0;" parent="1" vertex="1">
          <mxGeometry x="450" y="690" width="79.76" height="30" as="geometry" />
        </mxCell>
        <mxCell id="aNrNENJhGVUGavfEX417-20" value="&lt;pre&gt;Windows Server&lt;br&gt;RDP Enabled&lt;/pre&gt;" style="text;html=1;align=center;verticalAlign=middle;whiteSpace=wrap;rounded=0;" parent="1" vertex="1">
          <mxGeometry x="76.75" y="690" width="60" height="30" as="geometry" />
        </mxCell>
        <mxCell id="aNrNENJhGVUGavfEX417-21" value="Fleet Server" style="text;html=1;align=center;verticalAlign=middle;whiteSpace=wrap;rounded=0;" parent="1" vertex="1">
          <mxGeometry x="255.01" y="549.5" width="76.5" height="30" as="geometry" />
        </mxCell>
        <mxCell id="aNrNENJhGVUGavfEX417-22" value="os Ticket Server" style="text;html=1;align=center;verticalAlign=middle;whiteSpace=wrap;rounded=0;" parent="1" vertex="1">
          <mxGeometry x="453.13" y="360" width="93.25" height="30" as="geometry" />
        </mxCell>
        <mxCell id="aNrNENJhGVUGavfEX417-23" value="C2 Server Mystic" style="text;html=1;align=center;verticalAlign=middle;whiteSpace=wrap;rounded=0;" parent="1" vertex="1">
          <mxGeometry x="763" y="142" width="60" height="30" as="geometry" />
        </mxCell>
        <mxCell id="aNrNENJhGVUGavfEX417-27" style="edgeStyle=orthogonalEdgeStyle;rounded=0;orthogonalLoop=1;jettySize=auto;html=1;exitX=0.5;exitY=1;exitDx=0;exitDy=0;" parent="1" source="aNrNENJhGVUGavfEX417-19" target="aNrNENJhGVUGavfEX417-19" edge="1">
          <mxGeometry relative="1" as="geometry" />
        </mxCell>
        <mxCell id="aNrNENJhGVUGavfEX417-36" style="rounded=0;orthogonalLoop=1;jettySize=auto;html=1;entryX=1;entryY=0.5;entryDx=0;entryDy=0;entryPerimeter=0;" parent="1" source="aNrNENJhGVUGavfEX417-1" target="aNrNENJhGVUGavfEX417-2" edge="1">
          <mxGeometry relative="1" as="geometry" />
        </mxCell>
        <mxCell id="aNrNENJhGVUGavfEX417-38" value="Managed" style="edgeLabel;html=1;align=center;verticalAlign=middle;resizable=0;points=[];" parent="aNrNENJhGVUGavfEX417-36" vertex="1" connectable="0">
          <mxGeometry x="0.0076" y="4" relative="1" as="geometry">
            <mxPoint as="offset" />
          </mxGeometry>
        </mxCell>
        <mxCell id="aNrNENJhGVUGavfEX417-39" style="edgeStyle=orthogonalEdgeStyle;rounded=0;orthogonalLoop=1;jettySize=auto;html=1;entryX=0.5;entryY=1;entryDx=0;entryDy=0;entryPerimeter=0;startArrow=classic;startFill=1;fillColor=#fff2cc;strokeColor=#d6b656;dashed=1;" parent="1" source="aNrNENJhGVUGavfEX417-2" target="aNrNENJhGVUGavfEX417-5" edge="1">
          <mxGeometry relative="1" as="geometry" />
        </mxCell>
        <mxCell id="LWK1aguUJlo9VhWStzpI-20" value="Manage Agents" style="edgeLabel;html=1;align=center;verticalAlign=middle;resizable=0;points=[];" vertex="1" connectable="0" parent="aNrNENJhGVUGavfEX417-39">
          <mxGeometry x="-0.3811" y="-2" relative="1" as="geometry">
            <mxPoint y="1" as="offset" />
          </mxGeometry>
        </mxCell>
        <mxCell id="LWK1aguUJlo9VhWStzpI-12" value="" style="edgeStyle=orthogonalEdgeStyle;rounded=0;orthogonalLoop=1;jettySize=auto;html=1;" edge="1" parent="1" source="LWK1aguUJlo9VhWStzpI-1" target="LWK1aguUJlo9VhWStzpI-4">
          <mxGeometry relative="1" as="geometry" />
        </mxCell>
        <mxCell id="LWK1aguUJlo9VhWStzpI-1" value="Internet" style="ellipse;shape=cloud;whiteSpace=wrap;html=1;" vertex="1" parent="1">
          <mxGeometry x="236.63" y="-30" width="113.26" height="70" as="geometry" />
        </mxCell>
        <mxCell id="LWK1aguUJlo9VhWStzpI-11" value="" style="edgeStyle=orthogonalEdgeStyle;rounded=0;orthogonalLoop=1;jettySize=auto;html=1;entryX=0.461;entryY=-0.006;entryDx=0;entryDy=0;entryPerimeter=0;" edge="1" parent="1" source="LWK1aguUJlo9VhWStzpI-4" target="aNrNENJhGVUGavfEX417-16">
          <mxGeometry relative="1" as="geometry">
            <mxPoint x="293" y="240" as="targetPoint" />
          </mxGeometry>
        </mxCell>
        <mxCell id="LWK1aguUJlo9VhWStzpI-4" value="" style="outlineConnect=0;dashed=0;verticalLabelPosition=bottom;verticalAlign=top;align=center;html=1;shape=mxgraph.aws3.internet_gateway;fillColor=#F58534;gradientColor=none;" vertex="1" parent="1">
          <mxGeometry x="258.76" y="100" width="69" height="72" as="geometry" />
        </mxCell>
        <mxCell id="LWK1aguUJlo9VhWStzpI-5" value="SOC Analyst Laptop" style="sketch=0;aspect=fixed;pointerEvents=1;shadow=0;dashed=0;html=1;strokeColor=none;labelPosition=center;verticalLabelPosition=bottom;verticalAlign=top;align=center;fillColor=#00188D;shape=mxgraph.azure.laptop" vertex="1" parent="1">
          <mxGeometry x="-90" y="-30" width="116.66" height="70" as="geometry" />
        </mxCell>
        <mxCell id="LWK1aguUJlo9VhWStzpI-15" style="rounded=0;orthogonalLoop=1;jettySize=auto;html=1;" edge="1" parent="1" source="LWK1aguUJlo9VhWStzpI-6" target="aNrNENJhGVUGavfEX417-6">
          <mxGeometry relative="1" as="geometry" />
        </mxCell>
        <mxCell id="LWK1aguUJlo9VhWStzpI-6" value="Attacker PC" style="sketch=0;aspect=fixed;pointerEvents=1;shadow=0;dashed=0;html=1;strokeColor=#b85450;labelPosition=center;verticalLabelPosition=bottom;verticalAlign=top;align=center;fillColor=#f8cecc;shape=mxgraph.azure.laptop" vertex="1" parent="1">
          <mxGeometry x="590" y="-30" width="126.5" height="75.9" as="geometry" />
        </mxCell>
        <mxCell id="LWK1aguUJlo9VhWStzpI-9" style="rounded=0;orthogonalLoop=1;jettySize=auto;html=1;entryX=0;entryY=0.5;entryDx=0;entryDy=0;entryPerimeter=0;dashed=1;dashPattern=12 12;fillColor=#dae8fc;strokeColor=#6c8ebf;" edge="1" parent="1" source="aNrNENJhGVUGavfEX417-4" target="aNrNENJhGVUGavfEX417-5">
          <mxGeometry relative="1" as="geometry" />
        </mxCell>
        <mxCell id="LWK1aguUJlo9VhWStzpI-10" style="rounded=0;orthogonalLoop=1;jettySize=auto;html=1;entryX=1;entryY=0.5;entryDx=0;entryDy=0;entryPerimeter=0;dashed=1;dashPattern=12 12;fillColor=#dae8fc;strokeColor=#6c8ebf;" edge="1" parent="1" source="aNrNENJhGVUGavfEX417-1" target="aNrNENJhGVUGavfEX417-5">
          <mxGeometry relative="1" as="geometry" />
        </mxCell>
        <mxCell id="LWK1aguUJlo9VhWStzpI-13" style="rounded=0;orthogonalLoop=1;jettySize=auto;html=1;" edge="1" parent="1" source="LWK1aguUJlo9VhWStzpI-6" target="LWK1aguUJlo9VhWStzpI-1">
          <mxGeometry relative="1" as="geometry" />
        </mxCell>
        <mxCell id="LWK1aguUJlo9VhWStzpI-14" style="rounded=0;orthogonalLoop=1;jettySize=auto;html=1;entryX=0.16;entryY=0.55;entryDx=0;entryDy=0;entryPerimeter=0;" edge="1" parent="1" source="LWK1aguUJlo9VhWStzpI-5" target="LWK1aguUJlo9VhWStzpI-1">
          <mxGeometry relative="1" as="geometry" />
        </mxCell>
        <mxCell id="LWK1aguUJlo9VhWStzpI-17" value="Connect to Elastic/Kibana via Web GUI" style="edgeLabel;html=1;align=center;verticalAlign=middle;resizable=0;points=[];" vertex="1" connectable="0" parent="LWK1aguUJlo9VhWStzpI-14">
          <mxGeometry x="-0.1549" y="-3" relative="1" as="geometry">
            <mxPoint as="offset" />
          </mxGeometry>
        </mxCell>
        <mxCell id="LWK1aguUJlo9VhWStzpI-18" style="edgeStyle=orthogonalEdgeStyle;rounded=0;orthogonalLoop=1;jettySize=auto;html=1;entryX=1;entryY=0.5;entryDx=0;entryDy=0;entryPerimeter=0;dashed=1;fillColor=#ffe6cc;strokeColor=#d79b00;" edge="1" parent="1" source="aNrNENJhGVUGavfEX417-3" target="aNrNENJhGVUGavfEX417-5">
          <mxGeometry relative="1" as="geometry" />
        </mxCell>
        <mxCell id="LWK1aguUJlo9VhWStzpI-19" value="Alert/Tickets" style="edgeLabel;html=1;align=center;verticalAlign=middle;resizable=0;points=[];" vertex="1" connectable="0" parent="LWK1aguUJlo9VhWStzpI-18">
          <mxGeometry x="-0.1288" y="3" relative="1" as="geometry">
            <mxPoint as="offset" />
          </mxGeometry>
        </mxCell>
        <mxCell id="LWK1aguUJlo9VhWStzpI-21" value="Private Network: 172.31.0.0/24&lt;br&gt;IP Range: 172.31.0.1 1-254&lt;br&gt;Subnet Masjk: 255.255.255.0" style="text;html=1;align=center;verticalAlign=middle;resizable=0;points=[];autosize=1;strokeColor=none;fillColor=none;" vertex="1" parent="1">
          <mxGeometry x="40" y="290" width="190" height="60" as="geometry" />
        </mxCell>
      </root>
    </mxGraphModel>
  </diagram>
</mxfile>
